{"title":"Dealin with Idiots 2013 WEBRip XViD juggs","uid":8682648,"size":741248919,"categoryP":"video","categoryS":"movies","magnet":"?xt=urn:btih:3f838d9b0c0573847e1a996912cdf68561687dcb&amp;dn=Dealin+with+Idiots+2013+WEBRip+XViD+juggs&amp;tr=udp%3A%2F%2Ftracker.openbittorrent.com%3A80&amp;tr=udp%3A%2F%2Fopen.demonii.com%3A1337&amp;tr=udp%3A%2F%2Ftracker.coppersurfer.tk%3A6969&amp;tr=udp%3A%2F%2Fexodus.desync.com%3A6969","seeders":2,"leechers":3,"uploader":"juggs99","files":3,"time":1373734314,"description":"Source : brento(Thanks)\n &lt;a href=&quot;\nhttp://www.imdb.com/title/tt2948266&quot; rel=&quot;nofollow&quot; target=&quot;_NEW&quot;&gt;\nhttp://www.imdb.com/title/tt2948266&lt;/a&gt;\n\nFormat : AVI\nFormat/Info : Audio Video Interleave\nFile size : 697 MiB\nDuration : 1h 26mn\nOverall bit rate : 1 124 Kbps\nWriting library : VirtualDub build 32842/release\n\nVideo\nID : 0\nFormat : MPEG-4 Visual\nFormat profile : Advanced Simple@L5\nFormat settings, BVOP : 2\nFormat settings, QPel : No\nFormat settings, GMC : No warppoints\nFormat settings, Matrix : Default (H.263)\nMuxing mode : Packed bitstream\nCodec ID : XVID\nCodec ID/Hint : XviD\nDuration : 1h 26mn\nBit rate : 986 Kbps\nWidth : 640 pixels\nHeight : 352 pixels\nDisplay aspect ratio : 16:9\nFrame rate : 23.976 fps\nColor space : YUV\nChroma subsampling : 4:2:0\nBit depth : 8 bits\nScan type : Progressive\nCompression mode : Lossy\nBits/(Pixel*Frame) : 0.183\nStream size : 611 MiB (88%)\nWriting library : XviD 64\n\nAudio\nID : 1\nFormat : MPEG Audio\nFormat version : Version 1\nFormat profile : Layer 3\nCodec ID : 55\nCodec ID/Hint : MP3\nDuration : 1h 26mn\nBit rate mode : Constant\nBit rate : 128 Kbps\nChannel(s) : 2 channels\nSampling rate : 48.0 KHz\nCompression mode : Lossy\nStream size : 79.4 MiB (11%)\nAlignment : Split accross interleaves\nInterleave, duration : 42 ms (1.00 video frame)\nInterleave, preload duration : 500 ms\nWriting library : LAME3.99r\n\nPlot\nFaced with the absurd competitiveness surrounding his son's youth league baseball team, Max Morris, a famous comedian, decides to get to know the colorful parents and coaches of the team better in an attempt to find the inspiration for his next movie.\n\n &lt;a href=&quot;\nhttp://s22.postimg.org/74k7f1nrl/image.png&quot; rel=&quot;nofollow&quot; target=&quot;_NEW&quot;&gt;\nhttp://s22.postimg.org/74k7f1nrl/image.png&lt;/a&gt; &lt;a href=&quot;\nhttp://s22.postimg.org/6drh99le9/image.png&quot; rel=&quot;nofollow&quot; target=&quot;_NEW&quot;&gt;\nhttp://s22.postimg.org/6drh99le9/image.png&lt;/a&gt; &lt;a href=&quot;\nhttp://s22.postimg.org/scstzcvwx/image.png&quot; rel=&quot;nofollow&quot; target=&quot;_NEW&quot;&gt;\nhttp://s22.postimg.org/scstzcvwx/image.png&lt;/a&gt;","torrent":{"xt":"urn:btih:3f838d9b0c0573847e1a996912cdf68561687dcb","amp;dn":"Dealin+with+Idiots+2013+WEBRip+XViD+juggs","amp;tr":["udp%3A%2F%2Ftracker.openbittorrent.com%3A80","udp%3A%2F%2Fopen.demonii.com%3A1337","udp%3A%2F%2Ftracker.coppersurfer.tk%3A6969","udp%3A%2F%2Fexodus.desync.com%3A6969"],"infoHash":"3f838d9b0c0573847e1a996912cdf68561687dcb","infoHashBuffer":{"type":"Buffer","data":[63,131,141,155,12,5,115,132,126,26,153,105,18,205,246,133,97,104,125,203]},"announce":[],"urlList":[]}}